Coordinates
version=1
nRows=8
nColumns=63
inDegrees=yes

Units are S.I. units (second, meters, Newtons, ...)
If the header above contains a line with 'inDegrees', this indicates whether rotational values are in degrees (yes) or radians (no).

endheader
time	pelvis_tilt	pelvis_list	pelvis_rotation	pelvis_tx	pelvis_ty	pelvis_tz	hip_flexion_r	hip_adduction_r	hip_rotation_r	knee_angle_r	knee_angle_r_beta	ankle_angle_r	subtalar_angle_r	mtp_angle_r	hip_flexion_l	hip_adduction_l	hip_rotation_l	knee_angle_l	knee_angle_l_beta	ankle_angle_l	subtalar_angle_l	mtp_angle_l	L5_S1_Flex_Ext	L5_S1_Lat_Bending	L5_S1_axial_rotation	L4_L5_Flex_Ext	L4_L5_Lat_Bending	L4_L5_axial_rotation	L3_L4_Flex_Ext	L3_L4_Lat_Bending	L3_L4_axial_rotation	L2_L3_Flex_Ext	L2_L3_Lat_Bending	L2_L3_axial_rotation	L1_L2_Flex_Ext	L1_L2_Lat_Bending	L1_L2_axial_rotation	L1_T12_Flex_Ext	L1_T12_Lat_Bending	L1_T12_axial_rotation	Abs_r3	Abs_r2	Abs_r1	Abs_t1	Abs_t2	neck_flexion	neck_bending	neck_rotation	arm_flex_r	arm_add_r	arm_rot_r	elbow_flex_r	pro_sup_r	wrist_flex_r	wrist_dev_r	arm_flex_l	arm_add_l	arm_rot_l	elbow_flex_l	pro_sup_l	wrist_flex_l	wrist_dev_l
      4.33898305	      3.57698747	     -7.03518639	     98.65656427	      0.13779719	      1.05453579	     -0.06056529	      0.50951816	      4.23422013	      3.94354017	     11.95338187	      0.20862587	     34.34660686	    -16.33577249	      0.00000000	     -2.95000935	     -2.52939977	     19.32386907	      0.72077797	      0.01257995	     34.85222948	    -10.22085513	      0.00000000	     -0.07501335	     -0.56590706	      0.32443199	     -0.13930730	     -0.75265639	      0.34470899	     -0.12323944	     -1.37594642	      0.34470899	     -0.08573276	     -1.37594642	      0.28387799	     -0.06965740	     -1.15399767	      0.26360099	     -0.04286263	     -0.87659003	      0.24332399	     -0.53581288	     -6.40165382	      1.80439340	      0.00000000	      0.00000000	     23.93611319	      4.68557986	     20.94862821	     16.64606947	     -2.84153528	     79.66735099	     24.35742905	     21.50230732	      5.74351090	      4.43971433	     15.92165760	      1.24475708	     65.34902109	     25.38431192	     56.74619038	     -3.95592684	      6.45535731
      4.35593220	      3.62133293	     -6.95377220	     98.75132130	      0.13668365	      1.05469004	     -0.06061669	      0.50526938	      4.21715136	      3.95187370	     12.22986463	      0.21345140	     34.20756419	    -16.42678127	      0.00000000	     -3.03627027	     -2.51197626	     19.64580492	      0.80377435	      0.01402851	     34.90197680	    -10.56688744	      0.00000000	     -0.09726551	     -0.53389888	      0.40006931	     -0.18063178	     -0.71008550	      0.42507365	     -0.15979750	     -1.29812172	      0.42507365	     -0.11116475	     -1.29812172	      0.35006065	     -0.09032075	     -1.08872659	      0.32505632	     -0.05557751	     -0.82700936	      0.30005199	     -0.69475781	     -6.03957085	      2.22506550	      0.00000000	      0.00000000	     23.91352096	      3.78321746	     18.22274342	     17.15652795	     -2.87356300	     82.17558633	     24.25334266	     23.21265338	      6.10304622	      3.10434017	     16.22356527	      1.50948414	     65.88303101	     25.12294505	     55.63438038	     -3.91215048	      6.33061536
      4.37288136	      3.71126729	     -6.93653035	     98.81442777	      0.13552986	      1.05483834	     -0.06058099	      0.54173737	      4.22932564	      3.91988866	     12.41259524	      0.21664066	     33.94327927	    -16.52174891	      0.00000000	     -3.03263242	     -2.52077785	     19.69789832	      0.91120375	      0.01590351	     34.97827359	    -10.71263037	      0.00000000	     -0.11952887	     -0.49287646	      0.47561990	     -0.22197707	     -0.65552569	      0.50534614	     -0.19637399	     -1.19837982	      0.50534614	     -0.13660955	     -1.19837982	      0.41616741	     -0.11099451	     -1.00507367	      0.38644117	     -0.06829880	     -0.76346563	      0.35671493	     -0.85378280	     -5.57551708	      2.64525520	      0.00000000	      0.00000000	     23.90210491	      2.72007793	     15.03780683	     17.56345527	     -2.93088737	     84.07421508	     24.40082727	     24.90060516	      6.02595851	      2.24098325	     16.42647482	      1.79432188	     65.85533236	     24.92002497	     55.10547440	     -3.80342985	      6.21206891
      4.38983051	      3.71194369	     -6.91064032	     98.89841450	      0.13435009	      1.05503453	     -0.06072223	      0.56313708	      4.15156380	      3.81334334	     12.63800525	      0.22057480	     33.68643963	    -16.58425173	      0.00000000	     -3.01318023	     -2.42956585	     19.70881928	      1.09393699	      0.01909280	     34.99600246	    -10.77615684	      0.00000000	     -0.14781510	     -0.45313394	      0.52176180	     -0.27450742	     -0.60266814	      0.55437191	     -0.24284543	     -1.10174986	      0.55437191	     -0.16893788	     -1.10174986	      0.45654158	     -0.13726110	     -0.92403073	      0.42393146	     -0.08446155	     -0.70190447	      0.39132135	     -1.05582847	     -5.12594176	      2.90188261	      0.00000000	      0.00000000	     23.26123448	      2.89318113	     13.49672376	     17.79018671	     -3.09443643	     85.12664582	     24.91174016	     25.89535550	      6.01864429	      1.90651585	     16.58829808	      1.87440673	     65.89336157	     25.03157355	     55.06928226	     -3.70050614	      6.00031096
      4.40677966	      3.58605968	     -7.02599820	     98.89884633	      0.13347638	      1.05528571	     -0.06085921	      0.65202400	      3.93950912	      3.96505158	     12.68077615	      0.22132130	     33.55489832	    -16.65647206	      0.00000000	     -2.89588477	     -2.20207971	     19.92804495	      1.19818600	      0.02091229	     34.90335912	    -11.19823675	      0.00000000	     -0.15895900	     -0.43420114	      0.55746151	     -0.29520276	     -0.57748751	      0.59230286	     -0.26115374	     -1.05571665	      0.59230286	     -0.18167424	     -1.05571665	      0.48777883	     -0.14760933	     -0.88542296	      0.45293748	     -0.09082917	     -0.67257756	      0.41809614	     -1.13542824	     -4.91177012	      3.10043370	      0.00000000	      0.00000000	     22.97352403	      2.43488703	     11.25009863	     18.59506067	     -2.53988964	     90.08627484	     23.87485309	     34.02514416	      3.97093473	     -2.99866082	     16.92091427	      2.02794324	     67.04077499	     24.64285910	     55.16252340	     -3.31071040	      5.52065023
      4.42372881	      3.48123356	     -7.17574962	     99.15731186	      0.13240385	      1.05538798	     -0.06120559	      0.71576765	      3.74759771	      3.81497324	     12.58498705	      0.21964946	     33.48359867	    -16.60778102	      0.00000000	     -2.69183113	     -1.99868102	     20.39105595	      1.32535790	      0.02313186	     34.80612651	    -11.63539935	      0.00000000	     -0.15157317	     -0.40601856	      0.53015027	     -0.28148654	     -0.54000469	      0.56328466	     -0.24901957	     -0.98719353	      0.56328466	     -0.17323298	     -0.98719353	      0.46388148	     -0.14075085	     -0.82795305	      0.43074709	     -0.08660891	     -0.62892275	      0.39761270	     -1.08267203	     -4.59296317	      2.94853675	      0.00000000	      0.00000000	     22.19432471	      2.51901695	     10.36793822	     18.20150666	     -2.39382525	     89.22400898	     23.89511832	     40.74963243	      1.95102132	     -4.11889043	     17.03200893	      2.08270508	     67.97579010	     24.57167534	     56.04816760	     -2.98411610	      5.41281561
      4.44067797	      3.26273878	     -7.12580908	     99.46166805	      0.13124855	      1.05569263	     -0.06161545	      0.61942574	      3.46779326	      3.39453463	     12.58805061	      0.21970293	     33.55105897	    -16.50864682	      0.00000000	     -2.70048739	     -1.73139150	     21.16593711	      1.42877030	      0.02493675	     34.77439154	    -11.99880631	      0.00000000	     -0.16912314	     -0.38269125	      0.52569535	     -0.31407858	     -0.50897936	      0.55855131	     -0.27785240	     -0.93047550	      0.55855131	     -0.19329083	     -0.93047550	      0.45998343	     -0.15704775	     -0.78038400	      0.42712747	     -0.09663696	     -0.59278875	      0.39427151	     -1.20802966	     -4.32907995	      2.92375984	      0.00000000	      0.00000000	     21.35920218	      2.54624167	      9.86293739	     17.11037934	     -2.48266798	     85.09691912	     24.28173568	     48.76184890	      0.01844895	     -3.87235262	     17.08134601	      2.29321288	     68.69697208	     24.35104133	     58.51895039	     -2.57259488	      5.10252208
      4.45762712	      2.89911901	     -6.94663673	     99.57029205	      0.13029800	      1.05613570	     -0.06242572	      0.34602018	      3.08634592	      3.42251210	     12.58673518	      0.21967997	     33.73594548	    -16.51423483	      0.00000000	     -2.91855206	     -1.34453618	     21.45356965	      1.45073880	      0.02532017	     34.88482837	    -11.85453466	      0.00000000	     -0.17509238	     -0.36526379	      0.50637656	     -0.32516406	     -0.48580084	      0.53802509	     -0.28765927	     -0.88810239	      0.53802509	     -0.20011308	     -0.88810239	      0.44307949	     -0.16259078	     -0.74484593	      0.41143095	     -0.10004778	     -0.56579362	      0.37978242	     -1.25066735	     -4.13193708	      2.81631449	      0.00000000	      0.00000000	     20.13459141	      2.39211411	     10.22758231	     16.57881851	     -2.19282560	     85.32590618	     23.86581104	     48.97152496	     -0.57890624	     -3.88043422	     16.99331379	      2.41407322	     69.56658784	     24.25421229	     59.24940913	     -2.39433520	      5.26849711
